PathFileType	4	(X/Y/Z)	C:\Users\WrightLab\Desktop\Jo\P4V124.trc
DataRate	CameraRate	NumFrames	NumMarkers	Units	OrigDataRate	OrigDataStartFrame	OrigNumFrames
100.00	100.00	       8	19	mm	100.00	422	       562
Frame#	Time	Headset_Front			Headset_Back			Headset_Left			Headset_Right			Left_Shoulder			Right_Shoulder			Sternum			C7			Left Elbow			Right Elbow			Left Wrist			Right Wrist			Left ASIS			Right ASIS			S2			Left Knee			Right Knee			Left Ankle			Right Ankle			
		X1	Y1	Z1	X2	Y2	Z2	X3	Y3	Z3	X4	Y4	Z4	X5	Y5	Z5	X6	Y6	Z6	X7	Y7	Z7	X8	Y8	Z8	X9	Y9	Z9	X10	Y10	Z10	X11	Y11	Z11	X12	Y12	Z12	X13	Y13	Z13	X14	Y14	Z14	X15	Y15	Z15	X16	Y16	Z16	X17	Y17	Z17	X18	Y18	Z18	X19	Y19	Z19	

422	4.210				79.91154	1706.53760	1848.53113							292.45114	1570.49817	1679.55688	5.17322	1564.45862	1581.24475	124.94912	1509.55688	1739.97546				435.55365	1248.84546	1803.97607	-138.89909	1220.22522	1544.59583	346.33017	1057.69202	2032.56226	-183.96593	951.14685	1675.10889	297.90683	1081.16736	1785.73694	-27.67238	1071.08887	1710.79260				295.21790	588.46613	1779.97205	-88.34588	637.98846	1849.35864	261.10501	95.30199	1657.08911	45.04833	169.58588	1669.40271	
423	4.220				77.16187	1706.05640	1854.40955							289.78281	1570.84863	1688.76941	3.76824	1563.97607	1588.19531	122.69104	1509.78699	1748.43823				430.58731	1248.97058	1814.92627	-139.74593	1220.02515	1549.82898	337.44580	1065.19019	2048.05566	-186.38007	950.52313	1675.97314	295.42883	1081.01025	1792.98804	-29.40162	1071.73657	1718.90930				294.14981	587.75879	1781.48474	-89.78790	637.55249	1857.03613	261.09921	95.33105	1657.09851	33.82529	159.01285	1695.81140	
424	4.230				74.07973	1706.08997	1861.60583							287.69894	1570.56311	1695.80286	1.80763	1563.81445	1595.31250	120.29517	1509.73816	1755.96167				426.75745	1250.59741	1828.32092	-139.97241	1219.64624	1554.59741	329.31989	1071.95740	2061.00073	-187.96259	947.76416	1676.12256	293.66214	1080.80225	1800.37305	-31.91133	1071.78149	1726.55310				292.87476	587.06323	1783.20740	-90.89861	636.90094	1864.02441	261.09113	95.37357	1657.11194	22.57264	148.68684	1724.88171	
425	4.240				71.34566	1706.25781	1870.01074							285.46814	1571.08643	1704.26685	0.10799	1563.62659	1601.70874	118.25340	1509.28418	1762.61719				421.53015	1250.69177	1835.36584	-139.63983	1219.22058	1557.00500	320.81619	1079.61755	2076.30884	-189.47362	947.14014	1677.49048	291.87329	1080.00574	1806.88367	-34.34636	1071.92908	1734.64575				291.47528	587.64960	1787.69934	-91.76049	635.53021	1869.40979	261.09875	95.38765	1657.11194	11.30379	139.19363	1752.14050	
426	4.250	-3.66173	1738.03650	1749.47839	68.05797	1705.73486	1876.97083							283.82944	1569.94153	1710.06030	-1.84378	1563.43018	1608.77173	116.60036	1509.00195	1769.64478				417.90179	1251.95837	1850.35913	-139.18707	1217.88489	1561.85400	312.30325	1085.71692	2088.62354	-190.84975	944.87811	1678.80286	289.45129	1079.86658	1813.94690	-36.46567	1071.99524	1742.91699				290.03223	587.47778	1790.20435	-92.33997	633.18054	1877.07202	261.08728	95.40652	1657.12134	-0.99684	132.93703	1778.05774	
427	4.260	-6.12192	1737.03625	1757.59229	64.95975	1705.23621	1883.59656							281.62491	1569.81970	1718.22192	-4.03488	1562.96472	1616.20715	113.99664	1508.43372	1776.41650				412.46899	1251.55603	1857.97632	-139.40475	1217.13464	1566.64966	303.38287	1092.74512	2101.57446	-192.06070	943.09991	1680.05420	286.91718	1079.66443	1822.19067	-38.79830	1071.35034	1749.63562				289.22153	586.62421	1791.84290	-93.27211	631.20074	1882.82776	261.05746	95.42400	1657.13831	-12.25064	124.51621	1805.73291	
428	4.270	-9.05978	1736.87134	1764.20459	61.90256	1704.77039	1891.20984							279.50604	1569.54810	1724.47949	-6.54524	1562.10400	1623.57947	111.82877	1508.07336	1784.00122				408.00970	1252.77771	1869.39087	-139.92194	1216.53833	1570.85779	294.59427	1099.44202	2114.86890	-193.55841	941.75323	1682.16064	284.40134	1079.24524	1828.69189	-40.96864	1070.62927	1756.62219				287.61374	586.26721	1794.93750	-93.79739	628.94647	1888.11768	261.07626	95.53023	1657.03723	-23.63404	119.62439	1831.43555	
429	4.280	-12.17695	1735.94214	1770.35522	59.29862	1704.54980	1898.17957							276.77475	1568.83948	1732.18225	-9.19210	1561.64001	1630.84705	109.40108	1507.68738	1791.56519				402.92838	1252.96313	1880.24109	-140.61313	1215.80298	1574.61255	286.58701	1105.49292	2125.88916	-194.94176	939.99908	1684.30579	280.33041	1079.50085	1839.56348	-43.71580	1070.66724	1765.31055				286.67682	585.87469	1797.50745	-95.12865	626.27063	1893.97449	261.04721	95.51003	1657.04504	-35.83681	115.53011	1857.00061	
